<?xml version="1.0" encoding="UTF-8" standalone="no"?>
<!-- Created with Inkscape (http://www.inkscape.org/) -->

<svg
   xmlns:dc="http://purl.org/dc/elements/1.1/"
   xmlns:cc="http://creativecommons.org/ns#"
   xmlns:rdf="http://www.w3.org/1999/02/22-rdf-syntax-ns#"
   xmlns:svg="http://www.w3.org/2000/svg"
   xmlns="http://www.w3.org/2000/svg"
   version="1.1"
   width="1750"
   height="1225"
   id="svg2"
   xml:space="preserve"><metadata
     id="metadata8"><rdf:RDF><cc:Work
         rdf:about=""><dc:format>image/svg+xml</dc:format><dc:type
           rdf:resource="http://purl.org/dc/dcmitype/StillImage" /><dc:title></dc:title></cc:Work></rdf:RDF></metadata><defs
     id="defs6" /><g
     transform="matrix(1.25,0,0,-1.25,0,1225)"
     id="g10"><g
       transform="scale(0.1,0.1)"
       id="g12"><path
         d="m 1597.5,3295.61 1517.27,0 c 34.98,0 63.34,28.36 63.34,63.33 l 0,2312.44 c 0,34.98 -28.36,63.33 -63.34,63.33 l -1517.27,0 c -34.97,0 -63.33,-28.35 -63.33,-63.33 l 0,-2312.44 c 0,-34.97 28.36,-63.33 63.33,-63.33"
         id="path16"
         style="fill:#f4f4f4;fill-opacity:1;fill-rule:nonzero;stroke:none" /><path
         d="m 1534.17,4183.47 1643.94,0 0,663.383 -1643.94,0 0,-663.383 z"
         id="path18"
         style="fill:#e9e9e9;fill-opacity:1;fill-rule:nonzero;stroke:none" /><path
         d="m 3008.35,5734.71 -1304.43,0 c -93.75,0 -169.75,-76 -169.75,-169.75 l 0,-161.94 1643.93,0 0,161.94 c 0,93.75 -76,169.75 -169.75,169.75"
         id="path20"
         style="fill:#e9e9e9;fill-opacity:1;fill-rule:nonzero;stroke:none" /><path
         d="m 1534.17,3465.37 c 0,-93.76 76,-169.76 169.75,-169.76 l 1304.43,0 c 93.75,0 169.75,76 169.75,169.76 l 0,161.93 -1643.93,0 0,-161.93"
         id="path22"
         style="fill:#e9e9e9;fill-opacity:1;fill-rule:nonzero;stroke:none" /><path
         d="m 2144.67,3674.22 444.117,0 0,1566.46 -444.117,0 0,-1566.46 z"
         id="path24"
         style="fill:#393536;fill-opacity:1;fill-rule:nonzero;stroke:none" /><path
         d="m 1534.17,4497.29 1643.94,0 0,35.7422 -1643.94,0 0,-35.7422 z"
         id="path26"
         style="fill:#a7a5a6;fill-opacity:1;fill-rule:nonzero;stroke:none" /><path
         d="m 3123.17,4412.42 -55.41,0 c -6.91,0 -12.5,5.59 -12.5,12.5 l 0,180.49 c 0,6.9 5.59,12.5 12.5,12.5 l 55.41,0 c 6.9,0 12.5,-5.6 12.5,-12.5 l 0,-180.49 c 0,-6.91 -5.6,-12.5 -12.5,-12.5"
         id="path28"
         style="fill:#bdbcbc;fill-opacity:1;fill-rule:nonzero;stroke:none" /><path
         d="m 1632.23,4412.42 -55.41,0 c -6.9,0 -12.5,5.59 -12.5,12.5 l 0,180.49 c 0,6.9 5.6,12.5 12.5,12.5 l 55.41,0 c 6.91,0 12.5,-5.6 12.5,-12.5 l 0,-180.49 c 0,-6.91 -5.59,-12.5 -12.5,-12.5"
         id="path30"
         style="fill:#bdbcbc;fill-opacity:1;fill-rule:nonzero;stroke:none" /><path
         d="m 3906.92,3295.61 1517.27,0 c 34.98,0 63.33,28.36 63.33,63.33 l 0,2312.44 c 0,34.98 -28.35,63.33 -63.33,63.33 l -1517.27,0 c -34.98,0 -63.33,-28.35 -63.33,-63.33 l 0,-2312.44 c 0,-34.97 28.35,-63.33 63.33,-63.33"
         id="path32"
         style="fill:#f4f4f4;fill-opacity:1;fill-rule:nonzero;stroke:none" /><path
         d="m 3843.59,4183.47 1643.93,0 0,663.383 -1643.93,0 0,-663.383 z"
         id="path34"
         style="fill:#e9e9e9;fill-opacity:1;fill-rule:nonzero;stroke:none" /><path
         d="m 5317.77,5734.71 -1304.43,0 c -93.75,0 -169.75,-76 -169.75,-169.75 l 0,-161.94 1643.93,0 0,161.94 c 0,93.75 -76,169.75 -169.75,169.75"
         id="path36"
         style="fill:#e9e9e9;fill-opacity:1;fill-rule:nonzero;stroke:none" /><path
         d="m 3843.59,3465.37 c 0,-93.76 76,-169.76 169.75,-169.76 l 1304.43,0 c 93.75,0 169.75,76 169.75,169.76 l 0,161.93 -1643.93,0 0,-161.93"
         id="path38"
         style="fill:#e9e9e9;fill-opacity:1;fill-rule:nonzero;stroke:none" /><path
         d="m 5229.88,4127.52 0,-453.3 -1012.18,0 502.65,943.32 17.21,32.14 c 13.77,25.24 20.66,50.1 20.66,74.59 0,61.97 -36.35,92.96 -109.03,92.96 -28.31,0 -52.98,-10.53 -74.01,-31.57 -21.05,-21.05 -31.56,-45.72 -31.56,-74.02 0,-32.13 13.77,-61.21 41.31,-87.22 L 4384.1,4266.38 c -84.16,52.02 -148.81,118.2 -193.94,198.53 -45.16,80.33 -67.71,169.07 -67.71,266.24 0,150.72 53.17,279.82 159.52,387.32 106.33,107.48 234.86,161.23 385.58,161.23 151.49,0 280.2,-53.18 386.18,-159.51 105.95,-106.35 158.93,-235.66 158.93,-387.89 0,-87.21 -19.5,-168.32 -58.52,-243.29 l -185.91,-361.49 261.65,0"
         id="path40"
         style="fill:#393536;fill-opacity:1;fill-rule:nonzero;stroke:none" /><path
         d="m 3843.59,4497.29 1643.93,0 0,35.7422 -1643.93,0 0,-35.7422 z"
         id="path42"
         style="fill:#a7a5a6;fill-opacity:1;fill-rule:nonzero;stroke:none" /><path
         d="m 5432.59,4412.42 -55.41,0 c -6.91,0 -12.5,5.59 -12.5,12.5 l 0,180.49 c 0,6.9 5.59,12.5 12.5,12.5 l 55.41,0 c 6.9,0 12.5,-5.6 12.5,-12.5 l 0,-180.49 c 0,-6.91 -5.6,-12.5 -12.5,-12.5"
         id="path44"
         style="fill:#bdbcbc;fill-opacity:1;fill-rule:nonzero;stroke:none" /><path
         d="m 3941.65,4412.42 -55.41,0 c -6.9,0 -12.5,5.59 -12.5,12.5 l 0,180.49 c 0,6.9 5.6,12.5 12.5,12.5 l 55.41,0 c 6.91,0 12.5,-5.6 12.5,-12.5 l 0,-180.49 c 0,-6.91 -5.59,-12.5 -12.5,-12.5"
         id="path46"
         style="fill:#bdbcbc;fill-opacity:1;fill-rule:nonzero;stroke:none" /><path
         d="m 6216.34,3295.61 1517.27,0 c 34.98,0 63.33,28.36 63.33,63.33 l 0,2312.44 c 0,34.98 -28.35,63.33 -63.33,63.33 l -1517.27,0 c -34.98,0 -63.33,-28.35 -63.33,-63.33 l 0,-2312.44 c 0,-34.97 28.35,-63.33 63.33,-63.33"
         id="path48"
         style="fill:#f4f4f4;fill-opacity:1;fill-rule:nonzero;stroke:none" /><path
         d="m 6153.01,4183.47 1643.93,0 0,663.383 -1643.93,0 0,-663.383 z"
         id="path50"
         style="fill:#e9e9e9;fill-opacity:1;fill-rule:nonzero;stroke:none" /><path
         d="m 7627.19,5734.71 -1304.43,0 c -93.75,0 -169.75,-76 -169.75,-169.75 l 0,-161.94 1643.93,0 0,161.94 c 0,93.75 -76,169.75 -169.75,169.75"
         id="path52"
         style="fill:#e9e9e9;fill-opacity:1;fill-rule:nonzero;stroke:none" /><path
         d="m 6153.01,3465.37 c 0,-93.76 76,-169.76 169.75,-169.76 l 1304.43,0 c 93.75,0 169.75,76 169.75,169.76 l 0,161.93 -1643.93,0 0,-161.93"
         id="path54"
         style="fill:#e9e9e9;fill-opacity:1;fill-rule:nonzero;stroke:none" /><path
         d="m 6569.58,5240.68 829.7,0 -255.91,-602.48 c 91.81,-61.97 158.55,-129.88 200.26,-203.7 41.69,-73.84 62.55,-161.24 62.55,-262.22 0,-150.74 -55.49,-277.92 -166.41,-381.58 -110.94,-103.68 -247.5,-155.49 -409.69,-155.49 -89.51,0 -178.27,16.83 -266.25,50.48 l 0,442.97 c 66.57,-41.31 124.32,-61.96 173.29,-61.96 53.55,0 98.5,19.11 134.85,57.37 36.33,38.25 54.51,85.69 54.51,142.31 0,65.02 -27.17,116.85 -81.48,155.49 -54.33,38.63 -127.01,57.96 -218.04,57.96 l 115.91,308.71 -173.29,0 0,452.14"
         id="path56"
         style="fill:#393536;fill-opacity:1;fill-rule:nonzero;stroke:none" /><path
         d="m 6153.01,4497.29 1643.93,0 0,35.7422 -1643.93,0 0,-35.7422 z"
         id="path58"
         style="fill:#a7a5a6;fill-opacity:1;fill-rule:nonzero;stroke:none" /><path
         d="m 7742,4412.42 -55.41,0 c -6.9,0 -12.5,5.59 -12.5,12.5 l 0,180.49 c 0,6.9 5.6,12.5 12.5,12.5 l 55.41,0 c 6.91,0 12.5,-5.6 12.5,-12.5 l 0,-180.49 c 0,-6.91 -5.59,-12.5 -12.5,-12.5"
         id="path60"
         style="fill:#bdbcbc;fill-opacity:1;fill-rule:nonzero;stroke:none" /><path
         d="m 6251.07,4412.42 -55.41,0 c -6.9,0 -12.5,5.59 -12.5,12.5 l 0,180.49 c 0,6.9 5.6,12.5 12.5,12.5 l 55.41,0 c 6.9,0 12.5,-5.6 12.5,-12.5 l 0,-180.49 c 0,-6.91 -5.6,-12.5 -12.5,-12.5"
         id="path62"
         style="fill:#bdbcbc;fill-opacity:1;fill-rule:nonzero;stroke:none" /><path
         d="m 8525.76,3295.61 1517.24,0 c 35,0 63.4,28.36 63.4,63.33 l 0,2312.44 c 0,34.98 -28.4,63.33 -63.4,63.33 l -1517.24,0 c -34.98,0 -63.34,-28.35 -63.34,-63.33 l 0,-2312.44 c 0,-34.97 28.36,-63.33 63.34,-63.33"
         id="path64"
         style="fill:#f4f4f4;fill-opacity:1;fill-rule:nonzero;stroke:none" /><path
         d="m 8462.42,4183.47 1643.98,0 0,663.383 -1643.98,0 0,-663.383 z"
         id="path66"
         style="fill:#e9e9e9;fill-opacity:1;fill-rule:nonzero;stroke:none" /><path
         d="m 9936.61,5734.71 -1304.43,0 c -93.75,0 -169.76,-76 -169.76,-169.75 l 0,-161.94 1643.98,0 0,161.94 c 0,93.75 -76,169.75 -169.79,169.75"
         id="path68"
         style="fill:#e9e9e9;fill-opacity:1;fill-rule:nonzero;stroke:none" /><path
         d="m 8462.42,3465.37 c 0,-93.76 76.01,-169.76 169.76,-169.76 l 1304.43,0 c 93.79,0 169.79,76 169.79,169.76 l 0,161.93 -1643.98,0 0,-161.93"
         id="path70"
         style="fill:#e9e9e9;fill-opacity:1;fill-rule:nonzero;stroke:none" /><path
         d="m 9870.52,5240.68 0,-1566.46 -440.67,0 0,1195.79 -195.1,-387.88 96.4,0 0,-340.84 -611.66,0 463.62,1099.39 687.41,0"
         id="path72"
         style="fill:#393536;fill-opacity:1;fill-rule:nonzero;stroke:none" /><path
         d="m 8462.42,4497.29 1643.98,0 0,35.7422 -1643.98,0 0,-35.7422 z"
         id="path74"
         style="fill:#a7a5a6;fill-opacity:1;fill-rule:nonzero;stroke:none" /><path
         d="m 10051.4,4412.42 -55.39,0 c -6.9,0 -12.5,5.59 -12.5,12.5 l 0,180.49 c 0,6.9 5.6,12.5 12.5,12.5 l 55.39,0 c 6.9,0 12.5,-5.6 12.5,-12.5 l 0,-180.49 c 0,-6.91 -5.6,-12.5 -12.5,-12.5"
         id="path76"
         style="fill:#bdbcbc;fill-opacity:1;fill-rule:nonzero;stroke:none" /><path
         d="m 8560.49,4412.42 -55.41,0 c -6.9,0 -12.5,5.59 -12.5,12.5 l 0,180.49 c 0,6.9 5.6,12.5 12.5,12.5 l 55.41,0 c 6.9,0 12.5,-5.6 12.5,-12.5 l 0,-180.49 c 0,-6.91 -5.6,-12.5 -12.5,-12.5"
         id="path78"
         style="fill:#bdbcbc;fill-opacity:1;fill-rule:nonzero;stroke:none" /><path
         d="m 10835.2,3295.61 1517.2,0 c 35,0 63.4,28.36 63.4,63.33 l 0,2312.44 c 0,34.98 -28.4,63.33 -63.4,63.33 l -1517.2,0 c -35,0 -63.4,-28.35 -63.4,-63.33 l 0,-2312.44 c 0,-34.97 28.4,-63.33 63.4,-63.33"
         id="path80"
         style="fill:#f4f4f4;fill-opacity:1;fill-rule:nonzero;stroke:none" /><path
         d="m 10771.8,4183.47 1644,0 0,663.383 -1644,0 0,-663.383 z"
         id="path82"
         style="fill:#e9e9e9;fill-opacity:1;fill-rule:nonzero;stroke:none" /><path
         d="m 12246,5734.71 -1304.4,0 c -93.8,0 -169.8,-76 -169.8,-169.75 l 0,-161.94 1644,0 0,161.94 c 0,93.75 -76,169.75 -169.8,169.75"
         id="path84"
         style="fill:#e9e9e9;fill-opacity:1;fill-rule:nonzero;stroke:none" /><path
         d="m 10771.8,3465.37 c 0,-93.76 76,-169.76 169.8,-169.76 l 1304.4,0 c 93.8,0 169.8,76 169.8,169.76 l 0,161.93 -1644,0 0,-161.93"
         id="path86"
         style="fill:#e9e9e9;fill-opacity:1;fill-rule:nonzero;stroke:none" /><path
         d="m 12029.6,5240.68 0,-449.85 -385.6,0 -20.6,-71.15 c 140.7,-40.56 244.8,-99.09 312.1,-175.59 92.6,-104.05 138.9,-228.76 138.9,-374.11 0,-153.78 -56.5,-281.36 -169.3,-382.72 -112.9,-101.39 -255,-152.05 -426.3,-152.05 -115.6,0 -229.6,30.22 -342,90.65 l 0,385.6 c 89.5,-43.62 168.3,-65.42 236.4,-65.42 70.4,0 126,16.07 167,48.2 40.9,32.13 61.4,75.74 61.4,130.83 0,61.96 -31.6,114.36 -94.7,157.22 -63.1,42.84 -141,64.26 -233.6,64.26 -35.2,0 -81.8,-6.51 -140,-19.51 l 168.7,813.64 727.6,0"
         id="path88"
         style="fill:#393536;fill-opacity:1;fill-rule:nonzero;stroke:none" /><path
         d="m 10771.8,4497.29 1644,0 0,35.7422 -1644,0 0,-35.7422 z"
         id="path90"
         style="fill:#a7a5a6;fill-opacity:1;fill-rule:nonzero;stroke:none" /><path
         d="m 12360.8,4412.42 -55.4,0 c -6.9,0 -12.5,5.59 -12.5,12.5 l 0,180.49 c 0,6.9 5.6,12.5 12.5,12.5 l 55.4,0 c 6.9,0 12.5,-5.6 12.5,-12.5 l 0,-180.49 c 0,-6.91 -5.6,-12.5 -12.5,-12.5"
         id="path92"
         style="fill:#bdbcbc;fill-opacity:1;fill-rule:nonzero;stroke:none" /><path
         d="m 10869.9,4412.42 -55.4,0 c -6.9,0 -12.5,5.59 -12.5,12.5 l 0,180.49 c 0,6.9 5.6,12.5 12.5,12.5 l 55.4,0 c 6.9,0 12.5,-5.6 12.5,-12.5 l 0,-180.49 c 0,-6.91 -5.6,-12.5 -12.5,-12.5"
         id="path94"
         style="fill:#bdbcbc;fill-opacity:1;fill-rule:nonzero;stroke:none" /><path
         d="m 1597.5,655.492 1517.27,0 c 34.98,0 63.34,28.348 63.34,63.328 l 0,2312.43 c 0,34.98 -28.36,63.34 -63.34,63.34 l -1517.27,0 c -34.97,0 -63.33,-28.36 -63.33,-63.34 l 0,-2312.43 c 0,-34.98 28.36,-63.328 63.33,-63.328"
         id="path128"
         style="fill:#f4f4f4;fill-opacity:1;fill-rule:nonzero;stroke:none" /><path
         d="m 1534.17,1543.35 1643.94,0 0,663.379 -1643.94,0 0,-663.379 z"
         id="path130"
         style="fill:#e9e9e9;fill-opacity:1;fill-rule:nonzero;stroke:none" /><path
         d="m 3008.35,3094.59 -1304.43,0 c -93.75,0 -169.75,-76 -169.75,-169.76 l 0,-161.93 1643.93,0 0,161.93 c 0,93.76 -76,169.76 -169.75,169.76"
         id="path132"
         style="fill:#e9e9e9;fill-opacity:1;fill-rule:nonzero;stroke:none" /><path
         d="m 1534.17,825.242 c 0,-93.75 76,-169.75 169.75,-169.75 l 1304.43,0 c 93.75,0 169.75,76 169.75,169.75 l 0,161.938 -1643.93,0 0,-161.938"
         id="path134"
         style="fill:#e9e9e9;fill-opacity:1;fill-rule:nonzero;stroke:none" /><path
         d="m 2115.98,2646.46 411.98,-145.74 -305.25,-856.11 c -9.18,-24.49 -13.77,-46.3 -13.77,-65.41 0,-41.31 15.29,-76.89 45.9,-106.73 30.59,-29.83 66.94,-44.76 109.02,-44.76 42.07,0 77.84,15.1 107.3,45.34 29.44,30.21 44.19,66.74 44.19,109.6 0,42.83 -14.75,79.18 -44.19,109.01 -29.46,29.84 -65.23,44.76 -107.3,44.76 -9.95,0 -24.87,-1.55 -44.75,-4.59 l 187.06,449.86 c 162.18,-70.4 279.04,-151.31 350.58,-242.72 71.54,-91.43 107.31,-204.85 107.31,-340.26 0,-169.84 -57.96,-312.92 -173.87,-429.2 -115.91,-116.31 -258.03,-174.428 -426.33,-174.428 -159.14,0 -298.19,58.328 -417.15,174.998 -118.97,116.66 -178.45,253.04 -178.45,409.12 0,71.9 27.92,185.14 83.78,339.69 l 263.94,727.57"
         id="path136"
         style="fill:#393536;fill-opacity:1;fill-rule:nonzero;stroke:none" /><path
         d="m 1534.17,1857.17 1643.94,0 0,35.7383 -1643.94,0 0,-35.7383 z"
         id="path138"
         style="fill:#a7a5a6;fill-opacity:1;fill-rule:nonzero;stroke:none" /><path
         d="m 3123.17,1772.29 -55.41,0 c -6.91,0 -12.5,5.6 -12.5,12.5 l 0,180.49 c 0,6.91 5.59,12.5 12.5,12.5 l 55.41,0 c 6.9,0 12.5,-5.59 12.5,-12.5 l 0,-180.49 c 0,-6.9 -5.6,-12.5 -12.5,-12.5"
         id="path140"
         style="fill:#bdbcbc;fill-opacity:1;fill-rule:nonzero;stroke:none" /><path
         d="m 1632.23,1772.29 -55.41,0 c -6.9,0 -12.5,5.6 -12.5,12.5 l 0,180.49 c 0,6.91 5.6,12.5 12.5,12.5 l 55.41,0 c 6.91,0 12.5,-5.59 12.5,-12.5 l 0,-180.49 c 0,-6.9 -5.59,-12.5 -12.5,-12.5"
         id="path142"
         style="fill:#bdbcbc;fill-opacity:1;fill-rule:nonzero;stroke:none" /><path
         d="m 3906.92,655.492 1517.27,0 c 34.98,0 63.33,28.348 63.33,63.328 l 0,2312.43 c 0,34.98 -28.35,63.34 -63.33,63.34 l -1517.27,0 c -34.98,0 -63.33,-28.36 -63.33,-63.34 l 0,-2312.43 c 0,-34.98 28.35,-63.328 63.33,-63.328"
         id="path144"
         style="fill:#f4f4f4;fill-opacity:1;fill-rule:nonzero;stroke:none" /><path
         d="m 3843.59,1543.35 1643.93,0 0,663.379 -1643.93,0 0,-663.379 z"
         id="path146"
         style="fill:#e9e9e9;fill-opacity:1;fill-rule:nonzero;stroke:none" /><path
         d="m 5317.77,3094.59 -1304.43,0 c -93.75,0 -169.75,-76 -169.75,-169.76 l 0,-161.93 1643.93,0 0,161.93 c 0,93.76 -76,169.76 -169.75,169.76"
         id="path148"
         style="fill:#e9e9e9;fill-opacity:1;fill-rule:nonzero;stroke:none" /><path
         d="m 3843.59,825.242 c 0,-93.75 76,-169.75 169.75,-169.75 l 1304.43,0 c 93.75,0 169.75,76 169.75,169.75 l 0,161.938 -1643.93,0 0,-161.938"
         id="path150"
         style="fill:#e9e9e9;fill-opacity:1;fill-rule:nonzero;stroke:none" /><path
         d="m 5204.63,2600.56 -455.59,-1566.47 -476.25,0 354.6,1116.61 -479.69,0 0,449.86 1056.93,0"
         id="path152"
         style="fill:#393536;fill-opacity:1;fill-rule:nonzero;stroke:none" /><path
         d="m 3843.59,1857.17 1643.93,0 0,35.7383 -1643.93,0 0,-35.7383 z"
         id="path154"
         style="fill:#a7a5a6;fill-opacity:1;fill-rule:nonzero;stroke:none" /><path
         d="m 5432.59,1772.29 -55.41,0 c -6.91,0 -12.5,5.6 -12.5,12.5 l 0,180.49 c 0,6.91 5.59,12.5 12.5,12.5 l 55.41,0 c 6.9,0 12.5,-5.59 12.5,-12.5 l 0,-180.49 c 0,-6.9 -5.6,-12.5 -12.5,-12.5"
         id="path156"
         style="fill:#bdbcbc;fill-opacity:1;fill-rule:nonzero;stroke:none" /><path
         d="m 3941.65,1772.29 -55.41,0 c -6.9,0 -12.5,5.6 -12.5,12.5 l 0,180.49 c 0,6.91 5.6,12.5 12.5,12.5 l 55.41,0 c 6.91,0 12.5,-5.59 12.5,-12.5 l 0,-180.49 c 0,-6.9 -5.59,-12.5 -12.5,-12.5"
         id="path158"
         style="fill:#bdbcbc;fill-opacity:1;fill-rule:nonzero;stroke:none" /><path
         d="m 6216.34,655.492 1517.27,0 c 34.98,0 63.33,28.348 63.33,63.328 l 0,2312.43 c 0,34.98 -28.35,63.34 -63.33,63.34 l -1517.27,0 c -34.98,0 -63.33,-28.36 -63.33,-63.34 l 0,-2312.43 c 0,-34.98 28.35,-63.328 63.33,-63.328"
         id="path160"
         style="fill:#f4f4f4;fill-opacity:1;fill-rule:nonzero;stroke:none" /><path
         d="m 6153.01,1543.35 1643.93,0 0,663.379 -1643.93,0 0,-663.379 z"
         id="path162"
         style="fill:#e9e9e9;fill-opacity:1;fill-rule:nonzero;stroke:none" /><path
         d="m 7627.19,3094.59 -1304.43,0 c -93.75,0 -169.75,-76 -169.75,-169.76 l 0,-161.93 1643.93,0 0,161.93 c 0,93.76 -76,169.76 -169.75,169.76"
         id="path164"
         style="fill:#e9e9e9;fill-opacity:1;fill-rule:nonzero;stroke:none" /><path
         d="m 6153.01,825.242 c 0,-93.75 76,-169.75 169.75,-169.75 l 1304.43,0 c 93.75,0 169.75,76 169.75,169.75 l 0,161.938 -1643.93,0 0,-161.938"
         id="path166"
         style="fill:#e9e9e9;fill-opacity:1;fill-rule:nonzero;stroke:none" /><path
         d="m 6979.26,2303.33 c -34.42,0 -64.08,-12.62 -88.93,-37.87 -24.88,-25.25 -37.3,-54.71 -37.3,-88.36 0,-39.02 12.23,-71.15 36.72,-96.4 24.48,-25.25 55.84,-37.87 94.1,-37.87 34.44,0 64.07,13 88.95,39.02 24.85,25.99 37.29,56.61 37.29,91.8 0,36.73 -12.62,67.51 -37.87,92.39 -25.24,24.85 -56.23,37.29 -92.96,37.29 z m 3.45,-584.12 c -52.04,0 -96.59,-18.18 -133.69,-54.51 -37.12,-36.35 -55.67,-80.16 -55.67,-131.41 0,-55.85 17.97,-102.32 53.94,-139.42 35.96,-37.12 81.08,-55.67 135.42,-55.67 54.32,0 99.44,18.55 135.42,55.67 35.95,37.1 53.94,83.57 53.94,139.42 0,50.5 -18.76,94.11 -56.24,130.83 -37.5,36.72 -81.87,55.09 -133.12,55.09 z m 386.74,213.45 c 65.02,-67.34 109.77,-129.3 134.27,-185.91 24.48,-56.63 36.72,-125.48 36.72,-206.56 0,-155.33 -52.98,-285 -158.94,-389.05 -105.98,-104.05 -238.13,-156.058 -396.5,-156.058 -159.14,0 -291.68,52.008 -397.64,156.058 -105.97,104.05 -158.94,233.72 -158.94,389.05 0,78.78 12.81,147.63 38.45,206.56 25.62,58.9 69.8,120.88 132.54,185.91 -56.62,74.97 -84.92,158.37 -84.92,250.17 0,132.36 43.98,241.57 131.97,327.64 87.98,86.07 200.06,129.11 336.25,129.11 137.71,0 250.75,-42.86 339.11,-128.54 88.37,-85.69 132.55,-195.48 132.55,-329.35 0,-90.28 -28.31,-173.29 -84.92,-249.03"
         id="path168"
         style="fill:#393536;fill-opacity:1;fill-rule:nonzero;stroke:none" /><path
         d="m 6153.01,1857.17 1643.93,0 0,35.7383 -1643.93,0 0,-35.7383 z"
         id="path170"
         style="fill:#a7a5a6;fill-opacity:1;fill-rule:nonzero;stroke:none" /><path
         d="m 7742,1772.29 -55.41,0 c -6.9,0 -12.5,5.6 -12.5,12.5 l 0,180.49 c 0,6.91 5.6,12.5 12.5,12.5 l 55.41,0 c 6.91,0 12.5,-5.59 12.5,-12.5 l 0,-180.49 c 0,-6.9 -5.59,-12.5 -12.5,-12.5"
         id="path172"
         style="fill:#bdbcbc;fill-opacity:1;fill-rule:nonzero;stroke:none" /><path
         d="m 6251.07,1772.29 -55.41,0 c -6.9,0 -12.5,5.6 -12.5,12.5 l 0,180.49 c 0,6.91 5.6,12.5 12.5,12.5 l 55.41,0 c 6.9,0 12.5,-5.59 12.5,-12.5 l 0,-180.49 c 0,-6.9 -5.6,-12.5 -12.5,-12.5"
         id="path174"
         style="fill:#bdbcbc;fill-opacity:1;fill-rule:nonzero;stroke:none" /><path
         d="m 8525.76,655.492 1517.24,0 c 35,0 63.4,28.348 63.4,63.328 l 0,2312.43 c 0,34.98 -28.4,63.34 -63.4,63.34 l -1517.24,0 c -34.98,0 -63.34,-28.36 -63.34,-63.34 l 0,-2312.43 c 0,-34.98 28.36,-63.328 63.34,-63.328"
         id="path176"
         style="fill:#f4f4f4;fill-opacity:1;fill-rule:nonzero;stroke:none" /><path
         d="m 8462.42,1543.35 1643.98,0 0,663.379 -1643.98,0 0,-663.379 z"
         id="path178"
         style="fill:#e9e9e9;fill-opacity:1;fill-rule:nonzero;stroke:none" /><path
         d="m 9936.61,3094.59 -1304.43,0 c -93.75,0 -169.76,-76 -169.76,-169.76 l 0,-161.93 1643.98,0 0,161.93 c 0,93.76 -76,169.76 -169.79,169.76"
         id="path180"
         style="fill:#e9e9e9;fill-opacity:1;fill-rule:nonzero;stroke:none" /><path
         d="m 8462.42,825.242 c 0,-93.75 76.01,-169.75 169.76,-169.75 l 1304.43,0 c 93.79,0 169.79,76 169.79,169.75 l 0,161.938 -1643.98,0 0,-161.938"
         id="path182"
         style="fill:#e9e9e9;fill-opacity:1;fill-rule:nonzero;stroke:none" /><path
         d="m 9545.75,988.18 -411.99,145.76 305.27,856.1 c 8.41,24.47 12.62,46.66 12.62,66.56 0,41.31 -15.32,76.89 -45.9,106.73 -30.61,29.83 -66.96,44.76 -109.03,44.76 -42.08,0 -77.86,-15.12 -107.3,-45.34 -29.45,-30.23 -44.18,-66.75 -44.18,-109.6 0,-43.6 14.73,-80.33 44.18,-110.16 29.44,-29.84 65.59,-44.76 108.46,-44.76 9.18,0 23.7,1.53 43.6,4.59 l -185.91,-449.85 c -162.96,71.14 -280.21,152.23 -351.74,243.28 -71.54,91.04 -107.3,204.65 -107.3,340.84 0,169.07 57.96,311.75 173.87,428.06 115.9,116.28 258,174.43 426.32,174.43 159.12,0 298.18,-58.35 417.15,-175.01 118.96,-116.68 178.46,-253.05 178.46,-409.12 0,-72.7 -27.94,-185.91 -83.78,-339.69 l -262.8,-727.58"
         id="path184"
         style="fill:#393536;fill-opacity:1;fill-rule:nonzero;stroke:none" /><path
         d="m 8462.42,1857.17 1643.98,0 0,35.7383 -1643.98,0 0,-35.7383 z"
         id="path186"
         style="fill:#a7a5a6;fill-opacity:1;fill-rule:nonzero;stroke:none" /><path
         d="m 10051.4,1772.29 -55.39,0 c -6.9,0 -12.5,5.6 -12.5,12.5 l 0,180.49 c 0,6.91 5.6,12.5 12.5,12.5 l 55.39,0 c 6.9,0 12.5,-5.59 12.5,-12.5 l 0,-180.49 c 0,-6.9 -5.6,-12.5 -12.5,-12.5"
         id="path188"
         style="fill:#bdbcbc;fill-opacity:1;fill-rule:nonzero;stroke:none" /><path
         d="m 8560.49,1772.29 -55.41,0 c -6.9,0 -12.5,5.6 -12.5,12.5 l 0,180.49 c 0,6.91 5.6,12.5 12.5,12.5 l 55.41,0 c 6.9,0 12.5,-5.59 12.5,-12.5 l 0,-180.49 c 0,-6.9 -5.6,-12.5 -12.5,-12.5"
         id="path190"
         style="fill:#bdbcbc;fill-opacity:1;fill-rule:nonzero;stroke:none" /><path
         d="m 10835.2,655.492 1517.2,0 c 35,0 63.4,28.348 63.4,63.328 l 0,2312.43 c 0,34.98 -28.4,63.34 -63.4,63.34 l -1517.2,0 c -35,0 -63.4,-28.36 -63.4,-63.34 l 0,-2312.43 c 0,-34.98 28.4,-63.328 63.4,-63.328"
         id="path192"
         style="fill:#f4f4f4;fill-opacity:1;fill-rule:nonzero;stroke:none" /><path
         d="m 10771.8,1543.35 1644,0 0,663.379 -1644,0 0,-663.379 z"
         id="path194"
         style="fill:#e9e9e9;fill-opacity:1;fill-rule:nonzero;stroke:none" /><path
         d="m 12246,3094.59 -1304.4,0 c -93.8,0 -169.8,-76 -169.8,-169.76 l 0,-161.93 1644,0 0,161.93 c 0,93.76 -76,169.76 -169.8,169.76"
         id="path196"
         style="fill:#e9e9e9;fill-opacity:1;fill-rule:nonzero;stroke:none" /><path
         d="m 10771.8,825.242 c 0,-93.75 76,-169.75 169.8,-169.75 l 1304.4,0 c 93.8,0 169.8,76 169.8,169.75 l 0,161.938 -1644,0 0,-161.938"
         id="path198"
         style="fill:#e9e9e9;fill-opacity:1;fill-rule:nonzero;stroke:none" /><path
         d="m 11491.4,2081.85 0,-527.89 c 0,-95.65 37.1,-143.46 111.3,-143.46 75,0 112.5,47.81 112.5,143.46 l 0,527.89 c 0,95.62 -37.5,143.44 -112.5,143.44 -74.2,0 -111.3,-47.82 -111.3,-143.44 z m -446.4,-436.09 0,344.28 c 0,200.43 49.9,358.8 149.7,475.11 99.9,116.28 235.9,174.43 408,174.43 172.1,0 308.3,-58.15 408.5,-174.43 100.3,-116.31 150.4,-274.68 150.4,-475.11 l 0,-344.28 c 0,-200.46 -50.1,-359.02 -150.4,-475.68 -100.2,-116.67 -236.4,-174.998 -408.5,-174.998 -172.1,0 -308.1,58.328 -408,174.998 -99.8,116.66 -149.7,275.22 -149.7,475.68"
         id="path200"
         style="fill:#393536;fill-opacity:1;fill-rule:nonzero;stroke:none" /><path
         d="m 10771.8,1857.17 1644,0 0,35.7383 -1644,0 0,-35.7383 z"
         id="path202"
         style="fill:#a7a5a6;fill-opacity:1;fill-rule:nonzero;stroke:none" /><path
         d="m 12360.8,1772.29 -55.4,0 c -6.9,0 -12.5,5.6 -12.5,12.5 l 0,180.49 c 0,6.91 5.6,12.5 12.5,12.5 l 55.4,0 c 6.9,0 12.5,-5.59 12.5,-12.5 l 0,-180.49 c 0,-6.9 -5.6,-12.5 -12.5,-12.5"
         id="path204"
         style="fill:#bdbcbc;fill-opacity:1;fill-rule:nonzero;stroke:none" /><path
         d="m 10869.9,1772.29 -55.4,0 c -6.9,0 -12.5,5.6 -12.5,12.5 l 0,180.49 c 0,6.91 5.6,12.5 12.5,12.5 l 55.4,0 c 6.9,0 12.5,-5.59 12.5,-12.5 l 0,-180.49 c 0,-6.9 -5.6,-12.5 -12.5,-12.5"
         id="path206"
         style="fill:#bdbcbc;fill-opacity:1;fill-rule:nonzero;stroke:none" /><path
         d="m 7322.79,422.992 c 8.46,0 16.24,-7.371 16.24,-7.371 l -139.45,-297.84 c -15.27,0 -51.92,-2.179 -60.87,-2.179 -8.44,0 -16.24,7.367 -16.24,7.367 l -47.68,297.851 c 28.92,0 65.08,2.172 75.91,2.172 8.48,0 16.24,-7.371 16.24,-7.371 l 14.58,-145.711 c 1.26,-12.551 1.35,-29.969 0.85,-48.32 4.69,20.031 9.84,38.992 14.89,51.789 l 57.97,147.473 c 25.71,0 57.62,2.14 67.53,2.14 l 0.03,0"
         id="path244"
         style="fill:#ffffff;fill-opacity:1;fill-rule:nonzero;stroke:none" /><path
         d="m 7386.46,244.891 c 10.1,3.191 13.12,11.519 13.12,21.05 0,8.969 -2.9,22.379 -13.32,22.379 -18.76,0 -27.02,-30.289 -30.01,-53 l 30.21,9.571 z m 80.02,31.172 c 0,-32.442 -18.1,-53.872 -63.21,-63.172 l -47.33,-9.77 c 3.64,-20.402 16.45,-30.371 37.74,-30.371 26.07,0 43.52,19.68 43.52,19.68 0,0 13.3,-7.418 13.3,-22.649 0,-27.019 -41.44,-56.332 -89.64,-56.332 -48.9,0 -80.81,30.903 -80.81,83.082 0,60.282 42.71,142.051 118.72,142.051 41.63,0 67.71,-24.652 67.71,-62.519"
         id="path246"
         style="fill:#ffffff;fill-opacity:1;fill-rule:nonzero;stroke:none" /><path
         d="m 7593.91,338.582 c 38.35,0 67.17,-20.32 67.17,-46.711 0,-33 -39.95,-45.058 -39.95,-45.058 0,0 -11.72,36.039 -38.58,36.039 -18.2,0 -28.68,-18.411 -28.68,-57.672 0,-36.16 9.52,-52.43 32.91,-52.43 24.01,0 38.78,16.352 38.78,16.352 0,0 13.32,-7.411 13.32,-22.223 0,-25.859 -39.8,-53.43 -86.14,-53.43 -49.34,0 -79.74,30.903 -79.74,82.274 0,61.09 43.67,142.859 120.94,142.859 l -0.03,0"
         id="path248"
         style="fill:#ffffff;fill-opacity:1;fill-rule:nonzero;stroke:none" /><path
         d="m 7778.18,386.719 c 9.24,0 15.39,-7.047 15.39,-7.047 l -7.22,-45.43 48.12,0 -10.85,-34.633 c -3.52,-11.148 -9.06,-17.308 -20.34,-17.308 l -25.14,0 -14.02,-88.512 c -2.28,-14.309 0.84,-20.93 10.58,-21.039 8.85,-0.059 17.58,5.402 17.58,5.402 0,0 13.43,-7.48 13.43,-21.523 0,-21.668 -30.91,-43.18 -70.01,-43.18 -41.48,0 -58.21,25.383 -51.18,69.793 l 15.66,99.059 -26.1,0 11.36,36.129 c 2.92,9.269 10.57,15.812 19.93,15.812 l 12.69,0 15.21,41.828 c 18.83,4.61 36.37,10.649 44.91,10.649"
         id="path250"
         style="fill:#ffffff;fill-opacity:1;fill-rule:nonzero;stroke:none" /><path
         d="m 7931.82,244.891 c 10.09,3.191 13.12,11.519 13.12,21.05 0,8.969 -2.92,22.379 -13.32,22.379 -18.76,0 -27.05,-30.289 -30.02,-53 l 30.22,9.571 z m 80,31.172 c 0,-32.442 -18.09,-53.872 -63.2,-63.172 l -47.34,-9.77 c 3.66,-20.402 16.47,-30.371 37.73,-30.371 26.07,0 43.53,19.68 43.53,19.68 0,0 13.32,-7.418 13.32,-22.649 0,-27.019 -41.44,-56.332 -89.64,-56.332 -48.92,0 -80.81,30.903 -80.81,83.082 0,60.282 42.69,142.051 118.72,142.051 41.62,0 67.71,-24.652 67.71,-62.519 l -0.02,0"
         id="path252"
         style="fill:#ffffff;fill-opacity:1;fill-rule:nonzero;stroke:none" /><path
         d="m 8124.89,244.891 c 10.09,3.191 13.12,11.519 13.12,21.05 0,8.969 -2.94,22.379 -13.32,22.379 -18.76,0 -27.05,-30.289 -30.03,-53 l 30.23,9.571 z m 79.99,31.172 c 0,-32.442 -18.09,-53.872 -63.18,-63.172 l -47.35,-9.77 c 3.64,-20.402 16.46,-30.371 37.73,-30.371 26.1,0 43.52,19.68 43.52,19.68 0,0 13.33,-7.418 13.33,-22.649 0,-27.019 -41.44,-56.332 -89.64,-56.332 -48.92,0 -80.83,30.903 -80.83,83.082 0,60.282 42.73,142.051 118.72,142.051 41.64,0 67.73,-24.652 67.73,-62.519 l -0.03,0"
         id="path254"
         style="fill:#ffffff;fill-opacity:1;fill-rule:nonzero;stroke:none" /><path
         d="m 8362.82,195.199 c 0,0 16.28,-15.039 16.28,-39.898 0,-33.172 -28.09,-41.852 -51.63,-41.852 -30.67,0 -52.98,14.621 -76.32,22.512 -6.5,-7.5 -12.87,-15.02 -18.98,-22.512 0,0 -34.57,0.871 -34.57,24.422 0,28.719 47.86,77.969 99.44,133.777 -5.95,1.082 -11.65,1.813 -16.8,1.813 -29.32,0 -40.68,-14.652 -40.68,-14.652 0,0 -15.08,17.343 -13.81,39.91 1.71,31.293 31.47,39.863 54.84,39.863 24.78,0 42.97,-9.57 60.86,-17.41 l 14.52,17.41 c 0,0 34.88,-1.062 34.88,-24.742 0,-27.711 -46.33,-76.07 -96.41,-130.07 10.6,-2.961 20.46,-5.36 30.25,-5.36 25.98,0 38.13,16.789 38.13,16.789"
         id="path256"
         style="fill:#ffffff;fill-opacity:1;fill-rule:nonzero;stroke:none" /><path
         d="M 8587.27,132.551 C 8574.83,56.7305 8522.86,18.1992 8457.08,18.1992 c -42,0 -73.35,22.0625 -73.35,47.6328 0,16.8672 14.04,24.6797 14.04,24.6797 0,0 14.28,-13 42.43,-13 26.41,0 62.21,11.2578 68.49,51.1093 l 4.94,31.02 c -17.72,-25.5 -41.24,-46.192 -70.94,-46.192 -33.38,0 -48.24,27.313 -39.45,82.801 l 9.5,60.07 c 5.84,36.789 7.44,66.801 7.44,66.801 23.75,4.391 55.07,15.461 66.03,15.461 8.49,0 16.36,-7.07 16.36,-7.07 l -11.89,-75.192 -11,-69.371 c -1.01,-6.386 0.2,-9.976 6,-9.976 27.66,0 43.26,79.347 43.26,79.347 5.81,36.789 7.43,66.801 7.43,66.801 23.72,4.391 55.05,15.461 66.01,15.461 8.5,0 16.38,-7.07 16.38,-7.07 l -11.91,-75.192 -19.58,-123.769"
         id="path258"
         style="fill:#ffffff;fill-opacity:1;fill-rule:nonzero;stroke:none" /><path
         d="m 5421.98,292.301 0,-133.629 30.41,0 c 11.38,0 19.59,0.641 24.64,1.918 6.6,1.652 12.08,4.449 16.44,8.402 4.36,3.938 7.92,10.43 10.67,19.477 2.75,9.023 4.13,21.351 4.13,36.941 0,15.602 -1.38,27.57 -4.13,35.922 -2.75,8.348 -6.61,14.867 -11.56,19.547 -4.96,4.672 -11.24,7.84 -18.86,9.492 -5.69,1.289 -16.83,1.93 -33.44,1.93 l -18.3,0 z m -40.74,34.129 74.45,0 c 16.79,0 29.59,-1.289 38.4,-3.848 11.84,-3.492 21.97,-9.684 30.42,-18.59 8.44,-8.89 14.86,-19.801 19.26,-32.672 4.41,-12.91 6.61,-28.8 6.61,-47.699 0,-16.601 -2.06,-30.922 -6.19,-42.941 -5.05,-14.68 -12.25,-26.559 -21.61,-35.641 -7.06,-6.879 -16.61,-12.25 -28.63,-16.098 -8.99,-2.851 -21.01,-4.269 -36.05,-4.269 l -76.66,0 0,201.758"
         id="path260"
         style="fill:#ffffff;fill-opacity:1;fill-rule:nonzero;stroke:none" /><path
         d="m 5665.85,210.27 c -0.27,11.199 -3.16,19.699 -8.67,25.539 -5.5,5.812 -12.2,8.73 -20.09,8.73 -8.44,0 -15.42,-3.07 -20.92,-9.219 -5.5,-6.148 -8.21,-14.5 -8.12,-25.05 l 57.8,0 z m -2.2,-39.079 38.54,-6.472 c -4.96,-14.129 -12.78,-24.887 -23.47,-32.278 -10.69,-7.39 -24.06,-11.07 -40.12,-11.07 -25.41,0 -44.22,8.301 -56.42,24.91 -9.64,13.301 -14.45,30.09 -14.45,50.367 0,24.223 6.33,43.184 18.99,56.903 12.66,13.719 28.67,20.578 48.03,20.578 21.75,0 38.9,-7.188 51.47,-21.527 12.57,-14.372 18.58,-36.36 18.03,-66 l -96.89,0 c 0.28,-11.473 3.4,-20.403 9.36,-26.762 5.97,-6.391 13.4,-9.57 22.3,-9.57 6.05,0 11.14,1.652 15.27,4.96 4.13,3.301 7.25,8.622 9.36,15.961"
         id="path262"
         style="fill:#ffffff;fill-opacity:1;fill-rule:nonzero;stroke:none" /><path
         d="m 5716.5,166.371 38.81,5.918 c 1.65,-7.519 5,-13.238 10.05,-17.129 5.04,-3.91 12.11,-5.847 21.19,-5.847 10,0 17.52,1.828 22.57,5.5 3.39,2.566 5.09,6.007 5.09,10.316 0,2.941 -0.92,5.371 -2.75,7.301 -1.93,1.832 -6.24,3.531 -12.94,5.09 -31.19,6.882 -50.96,13.171 -59.31,18.851 -11.56,7.891 -17.34,18.859 -17.34,32.899 0,12.66 5,23.3 15,31.921 10,8.629 25.5,12.938 46.51,12.938 20.01,0 34.87,-3.258 44.59,-9.77 9.73,-6.507 16.43,-16.148 20.1,-28.898 l -36.47,-6.742 c -1.56,5.683 -4.52,10.043 -8.88,13.07 -4.36,3.031 -10.57,4.543 -18.65,4.543 -10.18,0 -17.48,-1.422 -21.88,-4.262 -2.94,-2.019 -4.4,-4.64 -4.4,-7.851 0,-2.75 1.28,-5.09 3.85,-7.02 3.49,-2.57 15.53,-6.187 36.12,-10.867 20.6,-4.684 34.98,-10.41 43.15,-17.203 8.07,-6.887 12.11,-16.469 12.11,-28.77 0,-13.386 -5.6,-24.91 -16.79,-34.539 -11.19,-9.629 -27.75,-14.449 -49.68,-14.449 -19.91,0 -35.67,4.039 -47.27,12.109 -11.61,8.071 -19.2,19.04 -22.78,32.891"
         id="path264"
         style="fill:#ffffff;fill-opacity:1;fill-rule:nonzero;stroke:none" /><path
         d="m 5881.24,124.672 0,146.16 38.67,0 0,-146.16 -38.67,0 z m 0,165.98 0,35.778 38.67,0 0,-35.778 -38.67,0"
         id="path266"
         style="fill:#ffffff;fill-opacity:1;fill-rule:nonzero;stroke:none" /><path
         d="m 5984.88,200.781 c 0,-15.511 3,-26.871 9.01,-34.062 6.01,-7.207 13.42,-10.809 22.23,-10.809 9.45,0 17.43,3.692 23.95,11.09 6.51,7.371 9.77,18.32 9.77,32.813 0,15.136 -3.12,26.378 -9.36,33.718 -6.24,7.34 -14.13,11.008 -23.67,11.008 -9.27,0 -16.91,-3.609 -22.92,-10.809 -6.01,-7.199 -9.01,-18.179 -9.01,-32.949 z m -34.54,-85.742 44.17,-5.367 c 0.74,-5.141 2.44,-8.672 5.1,-10.6017 3.67,-2.75 9.45,-4.1211 17.34,-4.1211 10.09,0 17.66,1.5117 22.7,4.543 3.4,2.0198 5.97,5.2698 7.71,9.7698 1.19,3.207 1.79,9.129 1.79,17.75 l 0,21.328 c -11.56,-15.781 -26.15,-23.668 -43.76,-23.668 -19.64,0 -35.19,8.308 -46.66,24.91 -8.99,13.117 -13.49,29.449 -13.49,49 0,24.488 5.9,43.207 17.69,56.148 11.79,12.93 26.45,19.399 43.97,19.399 18.07,0 32.98,-7.93 44.73,-23.809 l 0,20.512 36.19,0 0,-131.16 c 0,-17.25 -1.42,-30.141 -4.26,-38.672 -2.85,-8.5312 -6.84,-15.2305 -11.98,-20.0898 -5.14,-4.8711 -11.99,-8.668 -20.57,-11.418 -8.58,-2.7617 -19.43,-4.1328 -32.55,-4.1328 -24.77,0 -42.34,4.25 -52.71,12.7304 -10.37,8.4922 -15.55,19.2422 -15.55,32.2692 0,1.282 0.04,2.84 0.14,4.68"
         id="path268"
         style="fill:#ffffff;fill-opacity:1;fill-rule:nonzero;stroke:none" /><path
         d="m 6253.39,124.672 -38.67,0 0,74.59 c 0,15.789 -0.83,25.98 -2.48,30.617 -1.65,4.633 -4.33,8.242 -8.05,10.812 -3.72,2.571 -8.19,3.848 -13.42,3.848 -6.7,0 -12.7,-1.828 -18.03,-5.5 -5.32,-3.668 -8.96,-8.539 -10.94,-14.59 -1.97,-6.058 -2.96,-17.25 -2.96,-33.578 l 0,-66.199 -38.67,0 0,146.16 35.92,0 0,-21.473 c 12.76,16.512 28.81,24.77 48.17,24.77 8.53,0 16.33,-1.539 23.4,-4.617 7.06,-3.071 12.4,-6.981 16.03,-11.762 3.62,-4.77 6.15,-10.18 7.57,-16.238 1.42,-6.051 2.13,-14.723 2.13,-26.012 l 0,-90.828"
         id="path270"
         style="fill:#ffffff;fill-opacity:1;fill-rule:nonzero;stroke:none" /><path
         d="m 6373.81,210.27 c -0.27,11.199 -3.16,19.699 -8.67,25.539 -5.5,5.812 -12.2,8.73 -20.09,8.73 -8.44,0 -15.42,-3.07 -20.92,-9.219 -5.51,-6.148 -8.21,-14.5 -8.12,-25.05 l 57.8,0 z m -2.2,-39.079 38.53,-6.472 c -4.95,-14.129 -12.77,-24.887 -23.46,-32.278 -10.69,-7.39 -24.06,-11.07 -40.12,-11.07 -25.41,0 -44.22,8.301 -56.42,24.91 -9.64,13.301 -14.45,30.09 -14.45,50.367 0,24.223 6.33,43.184 18.99,56.903 12.66,13.719 28.67,20.578 48.03,20.578 21.74,0 38.9,-7.188 51.47,-21.527 12.57,-14.372 18.58,-36.36 18.03,-66 l -96.89,0 c 0.28,-11.473 3.4,-20.403 9.36,-26.762 5.96,-6.391 13.4,-9.57 22.3,-9.57 6.05,0 11.14,1.652 15.27,4.96 4.13,3.301 7.25,8.622 9.36,15.961"
         id="path272"
         style="fill:#ffffff;fill-opacity:1;fill-rule:nonzero;stroke:none" /><path
         d="m 6468.92,200.91 c 0,-15.59 2.15,-26.879 6.47,-33.851 6.23,-10.086 14.95,-15.137 26.14,-15.137 8.9,0 16.47,3.789 22.71,11.348 6.24,7.582 9.36,18.882 9.36,33.929 0,16.793 -3.03,28.871 -9.08,36.262 -6.06,7.379 -13.81,11.078 -23.26,11.078 -9.18,0 -16.86,-3.648 -23.05,-10.93 -6.2,-7.308 -9.29,-18.199 -9.29,-32.699 z m 103.22,-76.238 -35.92,0 0,21.469 c -5.97,-8.352 -13.01,-14.571 -21.13,-18.649 -8.12,-4.07 -16.31,-6.121 -24.57,-6.121 -16.78,0 -31.17,6.758 -43.14,20.309 -11.97,13.511 -17.96,32.402 -17.96,56.621 0,24.769 5.83,43.601 17.48,56.5 11.65,12.879 26.38,19.328 44.18,19.328 16.33,0 30.46,-6.789 42.38,-20.367 l 0,72.668 38.68,0 0,-201.758"
         id="path274"
         style="fill:#ffffff;fill-opacity:1;fill-rule:nonzero;stroke:none" /><path
         d="m 6714.03,200.91 c 0,-15.129 2.39,-26.328 7.16,-33.57 6.7,-10.281 15.6,-15.418 26.7,-15.418 8.53,0 15.8,3.641 21.81,10.949 6.01,7.281 9.02,18.777 9.02,34.469 0,16.699 -3.03,28.73 -9.09,36.121 -6.05,7.379 -13.81,11.078 -23.26,11.078 -9.26,0 -16.97,-3.609 -23.12,-10.809 -6.14,-7.199 -9.22,-18.128 -9.22,-32.82 z m -38.39,-76.238 0,201.758 38.67,0 0,-72.668 c 11.93,13.578 26.05,20.367 42.39,20.367 17.8,0 32.52,-6.449 44.17,-19.328 11.66,-12.899 17.48,-31.41 17.48,-55.539 0,-24.949 -5.94,-44.172 -17.82,-57.66 -11.88,-13.493 -26.31,-20.231 -43.28,-20.231 -8.35,0 -16.59,2.09 -24.71,6.27 -8.12,4.16 -15.11,10.339 -20.98,18.5 l 0,-21.469 -35.92,0"
         id="path276"
         style="fill:#ffffff;fill-opacity:1;fill-rule:nonzero;stroke:none" /><path
         d="m 6825.52,270.832 41.15,0 34.95,-103.773 34.13,103.773 40.05,0 -51.61,-140.652 -9.22,-25.461 c -3.39,-8.5393 -6.63,-15.0471 -9.7,-19.5471 -3.07,-4.4922 -6.61,-8.1328 -10.6,-10.9297 -3.99,-2.8008 -8.9,-4.9805 -14.72,-6.543 -5.83,-1.5586 -12.41,-2.3398 -19.75,-2.3398 -7.44,0 -14.73,0.7812 -21.88,2.3398 l -3.45,30.2696 c 6.06,-1.1875 11.52,-1.7891 16.38,-1.7891 8.99,0 15.64,2.6523 19.96,7.9103 4.31,5.289 7.61,12 9.91,20.172 l -55.6,146.57"
         id="path278"
         style="fill:#ffffff;fill-opacity:1;fill-rule:nonzero;stroke:none" /></g></g></svg>